<?xml version="1.0" encoding="utf-8"?>
<!-- Generator: Adobe Illustrator 15.0.0, SVG Export Plug-In . SVG Version: 6.00 Build 0)  -->
<!DOCTYPE svg PUBLIC "-//W3C//DTD SVG 1.1//EN" "http://www.w3.org/Graphics/SVG/1.1/DTD/svg11.dtd">
<svg version="1.1" id="Ebene_1" xmlns="http://www.w3.org/2000/svg" xmlns:xlink="http://www.w3.org/1999/xlink" x="0px" y="0px"
	 width="924.896px" height="1420.804px" viewBox="0 0 924.896 1420.804" enable-background="new 0 0 924.896 1420.804"
	 xml:space="preserve">
<path fill="#13121C" d="M641.314,931.612h-68.205c-9.857,0-19.123-3.838-26.097-10.813l-48.226-48.225
	c-6.969-6.969-10.807-16.235-10.807-26.092v-68.205c0-9.861,3.838-19.129,10.807-26.094l48.226-48.235
	c6.974-6.968,16.239-10.807,26.097-10.807h68.205c9.857,0,19.128,3.839,26.098,10.807l48.23,48.231
	c6.968,6.969,10.807,16.241,10.807,26.098v68.205c0,9.856-3.839,19.123-10.807,26.092l-48.23,48.229
	C660.442,927.774,651.172,931.612,641.314,931.612"/>
<path fill="#13121C" d="M306.023,286.01c1.918-0.398,3.695,1.082,3.56,3.037c-0.709,10.195-1.074,20.485-1.074,30.861
	c0,6.434,0.142,12.835,0.417,19.202c0.117,2.709-0.884,5.345-2.796,7.269L0.624,648.407c-1.888,1.901-5.062,0.446-4.956-2.23
	C2.666,467.654,143.96,319.69,306.023,286.01"/>
<path fill="#13121C" d="M314.09,405.161c1.639-1.639,4.429-0.784,4.893,1.487c8.515,41.663,24.851,81.182,44.267,117.63
	c0.799,1.5,0.532,3.341-0.667,4.544L95.69,794.786c-16.484,16.637-35.486,35.782-48.817,49.241
	c-3.774,3.81-10.173,2.705-12.482-2.136C17.1,805.646,5.26,766.31,0,724.904c-0.374-2.946,0.662-5.899,2.762-7.998L314.09,405.161z"
	/>
<path fill="#13121C" d="M438.873,800.634c1.826-1.826,4.949-0.533,4.949,2.05v66.655c0,7.742,3.073,15.167,8.547,20.641
	l17.331,20.438c1.147,1.148,1.141,3.01,1.533,2.595l-141.851,138.147c-3.78,3.742-6.924,4.701-10.002,4.179
	c-35.073-5.968-68.506-16.706-99.68-31.449c-1.808-0.856-2.211-3.255-0.797-4.668L438.873,800.634z"/>
<path fill="#13121C" d="M391.479,1060.161c-2.592,0.023-3.208-1.48-1.37-3.308l108.497-108.78c2.399-2.399,6.29-2.399,8.689,0
	l20.176,20.174c5.473,5.475,12.897,8.55,20.64,8.55c0,0,53.214,0.094,70.073,0.233c1.794,0.016,2.592,2.248,1.229,3.412
	C558.29,1032.629,472.993,1059.425,391.479,1060.161"/>
<path fill="#13121C" d="M67.615,883.744c29.94-29.915,171.017-170.862,199.918-199.738c2.207-2.206,5.729-0.868,6.282,2.204
	c4.456,24.776,16.302,47.813,34.347,65.859l0.009,0.007c18.919,18.921,43.314,31.065,69.457,34.986
	c3.092,0.464,4.494,3.975,2.284,6.186c-28.174,28.198-161.072,161.213-204.29,204.481c-1.304,0.105-2.093,0.17-3.396,0.277
	c-41.374-27.006-77.294-61.658-105.647-102.039C63.908,892.165,64.329,887.027,67.615,883.744"/>
<path fill="#13121C" d="M481.071,574.737v-68.205c0-9.857,3.838-19.123,10.813-26.098l48.225-48.225
	c6.968-6.969,16.234-10.808,26.092-10.808h68.205c9.861,0,19.128,3.839,26.093,10.808l48.235,48.225
	c6.967,6.975,10.807,16.24,10.807,26.098v68.205c0,9.857-3.84,19.128-10.807,26.098l-48.231,48.23
	c-6.969,6.968-16.241,10.807-26.097,10.807h-68.205c-9.857,0-19.124-3.839-26.092-10.807l-48.23-48.23
	C484.909,593.865,481.071,584.594,481.071,574.737"/>
<path fill="#13121C" d="M612.051,372.295c1.825,1.827,0.532,4.949-2.052,4.949h-66.653c-7.742,0-15.168,3.074-20.642,8.548
	l-20.437,17.331c-1.148,1.147-3.011,1.14-2.596,1.533L361.524,262.805c-3.741-3.779-4.701-6.924-4.179-10.002
	c5.969-35.073,16.707-68.505,31.449-99.679c0.855-1.808,3.256-2.211,4.668-0.797L612.051,372.295z"/>
<path fill="#13121C" d="M352.523,324.9c-0.023-2.592,1.479-3.208,3.308-1.369l108.781,108.497c2.398,2.399,2.398,6.289,0,8.689
	l-20.176,20.176c-5.475,5.472-8.55,12.898-8.55,20.64c0,0-0.094,53.214-0.232,70.073c-0.016,1.793-2.248,2.592-3.413,1.228
	C380.055,491.712,353.259,406.417,352.523,324.9"/>
<path fill="#13121C" d="M785.54,366.535c-12.267,12.267-28.902,19.158-46.249,19.158h-0.004c-17.35,0-33.987-6.891-46.254-19.158
	l-0.008-0.008c-12.27-12.267-19.161-28.906-19.161-46.256v-0.01c0-17.35,6.892-33.989,19.161-46.256l0.004-0.004
	c12.266-12.265,28.901-19.156,46.248-19.156h0.011c17.354,0,33.996,6.896,46.264,19.169l0.009,0.01
	c12.263,12.268,19.15,28.902,19.15,46.246c0,17.348-6.891,33.985-19.158,46.252L785.54,366.535z"/>
<path fill="#13121C" d="M528.939,1.037c29.915,29.941,170.862,171.016,199.737,199.918c2.207,2.208,0.869,5.73-2.203,6.283
	c-24.775,4.456-47.813,16.302-65.858,34.346l-0.008,0.009c-18.921,18.919-31.065,43.315-34.985,69.457
	c-0.464,3.092-3.976,4.494-6.187,2.284c-28.197-28.173-161.213-161.072-204.48-204.29c-0.106-1.303-0.171-2.092-0.277-3.395
	C441.683,64.275,476.335,28.355,516.717,0C520.519-2.669,525.657-2.249,528.939,1.037"/>
<path fill="#13121C" d="M433.113,627.144c12.266,12.266,19.156,28.902,19.156,46.249v0.004c0,17.349-6.891,33.987-19.156,46.254
	l-0.009,0.008c-12.268,12.27-28.907,19.161-46.256,19.161h-0.011c-17.35,0-33.988-6.892-46.256-19.161l-0.004-0.004
	c-12.266-12.266-19.155-28.902-19.155-46.248v-0.012c0-17.354,6.896-33.995,19.169-46.264l0.009-0.009
	c12.267-12.262,28.902-19.15,46.247-19.15c17.348,0,33.985,6.891,46.252,19.158L433.113,627.144z"/>
<path fill="#13121C" d="M364.59,1114.704c-0.397-1.918,1.082-3.694,3.037-3.559c10.195,0.709,20.485,1.074,30.861,1.074
	c6.434,0,12.835-0.141,19.202-0.417c2.709-0.117,5.345,0.884,7.269,2.796l302.028,305.506c1.901,1.889,0.446,5.061-2.229,4.956
	C546.234,1418.063,398.271,1276.769,364.59,1114.704"/>
<path fill="#13121C" d="M483.741,1106.639c-1.639-1.639-0.784-4.428,1.487-4.894c41.662-8.514,81.182-24.85,117.63-44.266
	c1.5-0.799,3.341-0.533,4.544,0.667l265.964,266.892c16.637,16.484,35.782,35.486,49.241,48.817
	c3.81,3.774,2.705,10.173-2.135,12.482c-36.247,17.291-75.582,29.131-116.988,34.391c-2.946,0.375-5.899-0.661-7.998-2.762
	L483.741,1106.639z"/>
<path fill="#13121C" d="M705.724,987.616c12.266-12.268,28.903-19.158,46.25-19.158h0.003c17.349,0,33.987,6.891,46.255,19.158
	l0.008,0.008c12.269,12.268,19.16,28.906,19.16,46.256v0.01c0,17.351-6.892,33.99-19.16,46.257l-0.004,0.004
	c-12.266,12.265-28.901,19.155-46.248,19.155h-0.012c-17.354,0-33.996-6.896-46.264-19.168l-0.01-0.01
	c-12.261-12.268-19.148-28.902-19.148-46.246c0-17.349,6.891-33.985,19.157-46.252L705.724,987.616z"/>
</svg>
